<svg width="16" height="11" viewBox="0 0 16 11" fill="none" xmlns="http://www.w3.org/2000/svg">
<path d="M11.75 8L14.75 5.5M14.75 5.5L11.75 3M14.75 5.5H4.25M8.75 8V8.625C8.75 9.12228 8.51295 9.59919 8.09099 9.95083C7.66903 10.3025 7.09674 10.5 6.5 10.5H3.5C2.90326 10.5 2.33097 10.3025 1.90901 9.95083C1.48705 9.59919 1.25 9.12228 1.25 8.625V2.375C1.25 1.87772 1.48705 1.40081 1.90901 1.04917C2.33097 0.697544 2.90326 0.5 3.5 0.5H6.5C7.09674 0.5 7.66903 0.697544 8.09099 1.04917C8.51295 1.40081 8.75 1.87772 8.75 2.375V3" stroke="#707276" stroke-linecap="round" stroke-linejoin="round"/>
</svg>
