<svg width="11" height="11" viewBox="0 0 11 11" fill="none" xmlns="http://www.w3.org/2000/svg">
<path d="M7.66668 0.0833282H3.33334C1.54097 0.0833282 0.0833435 1.54095 0.0833435 3.33333V9.83333C0.0833435 9.97699 0.140412 10.1148 0.241994 10.2163C0.343576 10.3179 0.481351 10.375 0.62501 10.375H7.66668C9.45905 10.375 10.9167 8.91737 10.9167 7.125V3.33333C10.9167 1.54095 9.45905 0.0833282 7.66668 0.0833282ZM9.83334 7.125C9.83334 8.31991 8.86159 9.29166 7.66668 9.29166H1.16668V3.33333C1.16668 2.13841 2.13843 1.16666 3.33334 1.16666H7.66668C8.86159 1.16666 9.83334 2.13841 9.83334 3.33333V7.125Z" fill="#707276"/>
</svg>
