<svg width="10" height="12" viewBox="0 0 10 12" fill="none" xmlns="http://www.w3.org/2000/svg">
<path d="M9.66668 3.66667L6.16668 0.166672H1.50001C1.19059 0.166672 0.893845 0.289588 0.675052 0.50838C0.45626 0.727173 0.333344 1.02392 0.333344 1.33334V10.6667C0.333344 10.9761 0.45626 11.2728 0.675052 11.4916C0.893845 11.7104 1.19059 11.8333 1.50001 11.8333H8.50001C8.80943 11.8333 9.10618 11.7104 9.32497 11.4916C9.54376 11.2728 9.66668 10.9761 9.66668 10.6667V3.66667ZM3.25001 10.0833H2.08334V4.83334H3.25001V10.0833ZM5.58334 10.0833H4.41668V6.58334H5.58334V10.0833ZM7.91668 10.0833H6.75001V8.33334H7.91668V10.0833ZM6.16668 4.25H5.58334V1.33334L8.50001 4.25H6.16668Z" fill="white"/>
</svg>
