<svg width="10" height="12" viewBox="0 0 10 12" fill="none" xmlns="http://www.w3.org/2000/svg">
<path fill-rule="evenodd" clip-rule="evenodd" d="M0.333343 9.49999C0.333343 10.1188 0.579176 10.7123 1.01676 11.1499C1.45435 11.5875 2.04784 11.8333 2.66668 11.8333L7.33334 11.8333C7.95218 11.8333 8.54567 11.5875 8.98326 11.1499C9.42084 10.7123 9.66668 10.1188 9.66668 9.49999L9.66668 2.49999C9.66668 1.88116 9.42084 1.28766 8.98326 0.850079C8.54567 0.412494 7.95218 0.166662 7.33334 0.166662L2.66668 0.166662C2.04784 0.166662 1.45435 0.412495 1.01676 0.85008C0.579176 1.28766 0.333343 1.88116 0.333343 2.5L0.333343 9.49999ZM1.50001 4.83333L1.50001 7.16666L8.50001 7.16666L8.50001 4.83333L1.50001 4.83333ZM1.50001 3.66666L8.50001 3.66666L8.50001 2.49999C8.50001 2.19058 8.37709 1.89383 8.1583 1.67504C7.93951 1.45625 7.64276 1.33333 7.33334 1.33333L2.66668 1.33333C2.35726 1.33333 2.06051 1.45625 1.84172 1.67504C1.62293 1.89383 1.50001 2.19058 1.50001 2.5L1.50001 3.66666ZM8.50001 9.49999L8.50001 8.33333L1.50001 8.33333L1.50001 9.49999C1.50001 9.80941 1.62293 10.1062 1.84172 10.325C2.06051 10.5437 2.35726 10.6667 2.66668 10.6667L7.33334 10.6667C7.64276 10.6667 7.93951 10.5437 8.1583 10.325C8.37709 10.1062 8.50001 9.80941 8.50001 9.49999Z" fill="#00B0D7"/>
</svg>
