<svg width="13" height="11" viewBox="0 0 13 11" fill="none" xmlns="http://www.w3.org/2000/svg">
<path d="M6.5 1.03125C6.28451 1.03125 6.07785 1.11685 5.92548 1.26923C5.7731 1.4216 5.6875 1.62826 5.6875 1.84375C5.6875 2.05924 5.7731 2.2659 5.92548 2.41827C6.07785 2.57065 6.28451 2.65625 6.5 2.65625C6.71549 2.65625 6.92215 2.57065 7.07452 2.41827C7.2269 2.2659 7.3125 2.05924 7.3125 1.84375C7.3125 1.62826 7.2269 1.4216 7.07452 1.26923C6.92215 1.11685 6.71549 1.03125 6.5 1.03125ZM4.875 1.84375C4.875 1.41277 5.0462 0.999448 5.35095 0.694701C5.6557 0.389955 6.06902 0.21875 6.5 0.21875C6.93098 0.21875 7.3443 0.389955 7.64905 0.694701C7.95379 0.999448 8.125 1.41277 8.125 1.84375C8.125 2.27473 7.95379 2.68805 7.64905 2.9928C7.3443 3.29755 6.93098 3.46875 6.5 3.46875C6.06902 3.46875 5.6557 3.29755 5.35095 2.9928C5.0462 2.68805 4.875 2.27473 4.875 1.84375ZM10.3594 1.4375C10.1978 1.4375 10.0428 1.5017 9.92848 1.61598C9.8142 1.73026 9.75 1.88526 9.75 2.04688C9.75 2.20849 9.8142 2.36349 9.92848 2.47777C10.0428 2.59205 10.1978 2.65625 10.3594 2.65625C10.521 2.65625 10.676 2.59205 10.7903 2.47777C10.9045 2.36349 10.9688 2.20849 10.9688 2.04688C10.9688 1.88526 10.9045 1.73026 10.7903 1.61598C10.676 1.5017 10.521 1.4375 10.3594 1.4375ZM8.9375 2.04688C8.9375 1.86015 8.97428 1.67526 9.04573 1.50275C9.11719 1.33024 9.22192 1.17349 9.35396 1.04146C9.48599 0.909424 9.64274 0.80469 9.81525 0.733234C9.98776 0.661778 10.1727 0.625 10.3594 0.625C10.5461 0.625 10.731 0.661778 10.9035 0.733234C11.076 0.80469 11.2328 0.909424 11.3648 1.04146C11.4968 1.17349 11.6016 1.33024 11.673 1.50275C11.7445 1.67526 11.7812 1.86015 11.7812 2.04688C11.7812 2.42398 11.6314 2.78564 11.3648 3.05229C11.0981 3.31895 10.7365 3.46875 10.3594 3.46875C9.98227 3.46875 9.62061 3.31895 9.35396 3.05229C9.0873 2.78564 8.9375 2.42398 8.9375 2.04688ZM2.03125 2.04688C2.03125 1.88526 2.09545 1.73026 2.20973 1.61598C2.32401 1.5017 2.47901 1.4375 2.64062 1.4375C2.80224 1.4375 2.95724 1.5017 3.07152 1.61598C3.1858 1.73026 3.25 1.88526 3.25 2.04688C3.25 2.20849 3.1858 2.36349 3.07152 2.47777C2.95724 2.59205 2.80224 2.65625 2.64062 2.65625C2.47901 2.65625 2.32401 2.59205 2.20973 2.47777C2.09545 2.36349 2.03125 2.20849 2.03125 2.04688ZM2.64062 0.625C2.26352 0.625 1.90186 0.774804 1.63521 1.04146C1.36855 1.30811 1.21875 1.66977 1.21875 2.04688C1.21875 2.42398 1.36855 2.78564 1.63521 3.05229C1.90186 3.31895 2.26352 3.46875 2.64062 3.46875C3.01773 3.46875 3.37939 3.31895 3.64604 3.05229C3.9127 2.78564 4.0625 2.42398 4.0625 2.04688C4.0625 1.66977 3.9127 1.30811 3.64604 1.04146C3.37939 0.774804 3.01773 0.625 2.64062 0.625ZM3.51447 8.95516C3.33073 9.07626 3.11764 9.14536 2.8978 9.15512C2.67796 9.16488 2.45957 9.11493 2.26583 9.01058C2.07209 8.90623 1.91021 8.75138 1.79738 8.56244C1.68456 8.37351 1.62499 8.15756 1.625 7.9375V5.29688C1.625 5.243 1.6464 5.19134 1.68449 5.15324C1.72259 5.11515 1.77425 5.09375 1.82813 5.09375H3.46572C3.50277 4.7963 3.62176 4.515 3.80941 4.28125H1.82813C1.55876 4.28125 1.30044 4.38825 1.10997 4.57872C0.919503 4.76919 0.8125 5.02751 0.8125 5.29688V7.9375C0.812395 8.28731 0.902631 8.63122 1.07447 8.93591C1.2463 9.2406 1.49391 9.49576 1.79331 9.67666C2.09271 9.85756 2.43376 9.95807 2.78341 9.96846C3.13307 9.97885 3.47948 9.89877 3.78909 9.73597C3.66221 9.48951 3.5698 9.22678 3.51447 8.95516ZM9.21091 9.73597C9.52052 9.89877 9.86693 9.97885 10.2166 9.96846C10.5662 9.95807 10.9073 9.85756 11.2067 9.67666C11.5061 9.49576 11.7537 9.2406 11.9255 8.93591C12.0974 8.63122 12.1876 8.28731 12.1875 7.9375V5.29688C12.1875 5.02751 12.0805 4.76919 11.89 4.57872C11.6996 4.38825 11.4412 4.28125 11.1719 4.28125H9.19059C9.37807 4.5151 9.49704 4.79635 9.53428 5.09375H11.1719C11.2257 5.09375 11.2774 5.11515 11.3155 5.15324C11.3536 5.19134 11.375 5.243 11.375 5.29688V7.9375C11.375 8.15756 11.3154 8.37351 11.2026 8.56244C11.0898 8.75138 10.9279 8.90623 10.7342 9.01058C10.5404 9.11493 10.322 9.16488 10.1022 9.15512C9.88236 9.14536 9.66927 9.07626 9.48553 8.95516C9.43019 9.22678 9.33779 9.48951 9.21091 9.73597ZM5.07812 4.28125C4.80876 4.28125 4.55044 4.38825 4.35997 4.57872C4.1695 4.76919 4.0625 5.02751 4.0625 5.29688V8.34375C4.0625 8.99022 4.31931 9.6102 4.77643 10.0673C5.23355 10.5244 5.85353 10.7812 6.5 10.7812C7.14647 10.7812 7.76645 10.5244 8.22357 10.0673C8.68069 9.6102 8.9375 8.99022 8.9375 8.34375V5.29688C8.9375 5.02751 8.8305 4.76919 8.64003 4.57872C8.44956 4.38825 8.19124 4.28125 7.92188 4.28125H5.07812ZM4.875 5.29688C4.875 5.243 4.8964 5.19134 4.93449 5.15324C4.97259 5.11515 5.02425 5.09375 5.07812 5.09375H7.92188C7.97575 5.09375 8.02741 5.11515 8.06551 5.15324C8.1036 5.19134 8.125 5.243 8.125 5.29688V8.34375C8.125 8.77473 7.95379 9.18805 7.64905 9.4928C7.3443 9.79754 6.93098 9.96875 6.5 9.96875C6.06902 9.96875 5.6557 9.79754 5.35095 9.4928C5.0462 9.18805 4.875 8.77473 4.875 8.34375V5.29688Z" fill="#707276"/>
</svg>
