<svg width="19" height="19" viewBox="0 0 19 19" fill="none" xmlns="http://www.w3.org/2000/svg">
<path d="M16.7003 9.6333H9.3667V2.2997C9.3667 2.20947 9.29287 2.13564 9.20264 2.13564H8.66943C7.59335 2.13454 6.52765 2.34593 5.53346 2.75769C4.53927 3.16944 3.63617 3.77345 2.87598 4.53506C2.12751 5.28121 1.53129 6.16579 1.12051 7.13955C0.693945 8.15058 0.476562 9.22314 0.476562 10.3306C0.476562 11.438 0.693945 12.5085 1.12051 13.5195C1.53271 14.4937 2.12334 15.3714 2.87598 16.124C3.62861 16.8767 4.5043 17.4673 5.48047 17.8795C6.48974 18.3077 7.57515 18.5274 8.67148 18.5255C9.74756 18.5266 10.8133 18.3152 11.8075 17.9034C12.8016 17.4917 13.7047 16.8877 14.4649 16.1261C15.2176 15.3734 15.8082 14.4978 16.2204 13.5216C16.6486 12.5123 16.8683 11.4269 16.8664 10.3306V9.79736C16.8644 9.70713 16.7905 9.6333 16.7003 9.6333ZM18.5029 8.49511L18.4496 7.91679C18.2753 6.03008 17.4386 4.25 16.0892 2.90674C14.741 1.55971 12.9645 0.726206 11.0668 0.550388L10.4864 0.497068C10.39 0.488864 10.308 0.562693 10.308 0.659079V8.52793C10.308 8.61816 10.3818 8.69199 10.4721 8.69199L18.3389 8.67148C18.4353 8.66943 18.5111 8.58945 18.5029 8.49511Z" fill="white"/>
</svg>
