<svg width="19" height="17" viewBox="0 0 19 17" fill="none" xmlns="http://www.w3.org/2000/svg">
<path d="M16.9375 1.5H2.0625C1.33763 1.5 0.75 2.08763 0.75 2.8125V14.1875C0.75 14.9124 1.33763 15.5 2.0625 15.5H16.9375C17.6624 15.5 18.25 14.9124 18.25 14.1875V2.8125C18.25 2.08763 17.6624 1.5 16.9375 1.5Z" stroke="white" stroke-width="1.5" stroke-linejoin="round"/>
<path d="M0.75 2.8125C0.75 2.4644 0.888281 2.13056 1.13442 1.88442C1.38056 1.63828 1.7144 1.5 2.0625 1.5H16.9375C17.2856 1.5 17.6194 1.63828 17.8656 1.88442C18.1117 2.13056 18.25 2.4644 18.25 2.8125V6.75H0.75V2.8125Z" stroke="white" stroke-width="1.5"/>
<path d="M2.5 4.125C2.5 3.64175 2.89175 3.25 3.375 3.25C3.85825 3.25 4.25 3.64175 4.25 4.125C4.25 4.60825 3.85825 5 3.375 5C2.89175 5 2.5 4.60825 2.5 4.125Z" fill="white"/>
<path d="M5.125 4.125C5.125 3.64175 5.51675 3.25 6 3.25C6.48325 3.25 6.875 3.64175 6.875 4.125C6.875 4.60825 6.48325 5 6 5C5.51675 5 5.125 4.60825 5.125 4.125Z" fill="white"/>
</svg>
